<?xml version="1.0" encoding="UTF-8"?>
<svg xmlns="http://www.w3.org/2000/svg" version="1.1" viewBox="0 0 512 512">
  <defs>
    <style>
      .cls-1 {
        fill: #222;
      }
    </style>
  </defs>
  <!-- Generator: Adobe Illustrator 28.6.0, SVG Export Plug-In . SVG Version: 1.2.0 Build 709)  -->
  <g>
    <g id="Outline">
      <path class="cls-1" d="M256,256c70.7,0,128-57.3,128-128S326.7,0,256,0s-128,57.3-128,128c0,70.7,57.3,127.9,128,128ZM256,42.7c47.1,0,85.3,38.2,85.3,85.3s-38.2,85.3-85.3,85.3-85.3-38.2-85.3-85.3,38.2-85.3,85.3-85.3Z"/>
      <path class="cls-1" d="M256,298.7c-106,.1-191.9,86-192,192,0,11.8,9.6,21.3,21.3,21.3s21.3-9.6,21.3-21.3c0-82.5,66.9-149.3,149.3-149.3s149.3,66.9,149.3,149.3,9.6,21.3,21.3,21.3,21.3-9.6,21.3-21.3c-.1-106-86-191.9-192-192Z"/>
    </g>
  </g>
</svg>